<svg width="16" height="16" viewBox="0 0 16 16" fill="none" xmlns="http://www.w3.org/2000/svg">
<path d="M7.875 0C9.96358 0 11.9666 0.829685 13.4435 2.30653C14.9203 3.78338 15.75 5.78642 15.75 7.875C15.75 9.96358 14.9203 11.9666 13.4435 13.4435C11.9666 14.9203 9.96358 15.75 7.875 15.75C5.78642 15.75 3.78338 14.9203 2.30653 13.4435C0.829685 11.9666 0 9.96358 0 7.875C0 5.78642 0.829685 3.78338 2.30653 2.30653C3.78338 0.829685 5.78642 0 7.875 0ZM6.894 9.42862L5.14462 7.67812C5.08191 7.61541 5.00746 7.56566 4.92552 7.53172C4.84358 7.49778 4.75575 7.48031 4.66706 7.48031C4.57837 7.48031 4.49055 7.49778 4.40861 7.53172C4.32667 7.56566 4.25221 7.61541 4.1895 7.67812C4.06284 7.80478 3.99169 7.97657 3.99169 8.15569C3.99169 8.33481 4.06284 8.50659 4.1895 8.63325L6.417 10.8608C6.47954 10.9238 6.55393 10.9738 6.63589 11.008C6.71786 11.0421 6.80577 11.0597 6.89456 11.0597C6.98335 11.0597 7.07127 11.0421 7.15323 11.008C7.2352 10.9738 7.30959 10.9238 7.37213 10.8608L11.9846 6.24713C12.0482 6.18467 12.0987 6.11025 12.1334 6.02816C12.168 5.94607 12.1861 5.85793 12.1865 5.76883C12.1869 5.67972 12.1697 5.59142 12.1358 5.50901C12.1019 5.4266 12.0521 5.35172 11.9891 5.28867C11.9261 5.22563 11.8513 5.17568 11.7689 5.1417C11.6865 5.10772 11.5983 5.09038 11.5092 5.09069C11.4201 5.091 11.3319 5.10895 11.2498 5.1435C11.1676 5.17805 11.0932 5.22852 11.0306 5.292L6.894 9.42862Z" fill="#3BB273"/>
</svg>
