<svg width="12" height="12" viewBox="0 0 12 12" fill="none" xmlns="http://www.w3.org/2000/svg">
<path d="M8.6875 7.75H8.19375L8.01875 7.58125C8.63125 6.86875 9 5.94375 9 4.9375C9 2.69375 7.18125 0.875 4.9375 0.875C2.69375 0.875 0.875 2.69375 0.875 4.9375C0.875 7.18125 2.69375 9 4.9375 9C5.94375 9 6.86875 8.63125 7.58125 8.01875L7.75 8.19375V8.6875L10.875 11.8062L11.8062 10.875L8.6875 7.75ZM4.9375 7.75C3.38125 7.75 2.125 6.49375 2.125 4.9375C2.125 3.38125 3.38125 2.125 4.9375 2.125C6.49375 2.125 7.75 3.38125 7.75 4.9375C7.75 6.49375 6.49375 7.75 4.9375 7.75Z" fill="#AFAFAF"/>
</svg>
